<svg width="904" height="145" viewBox="0 0 904 145" fill="none" xmlns="http://www.w3.org/2000/svg">
<path d="M71 145C56.3333 145 43.7333 142.067 33.2 136.2C22.8 130.2 14.8 121.8 9.2 111C3.6 100.067 0.8 87.2 0.8 72.4C0.8 57.6 3.6 44.8 9.2 34C14.8 23.2 22.8 14.8667 33.2 9C43.7333 2.99999 56.3333 -6.67572e-06 71 -6.67572e-06C80.4667 -6.67572e-06 89.4 1.46666 97.8 4.4C106.333 7.33333 113.333 11.5333 118.8 17L110.4 37.4C104.4 32.3333 98.2667 28.6667 92 26.4C85.7333 24 79 22.8 71.8 22.8C57.5333 22.8 46.6667 27.1333 39.2 35.8C31.7333 44.3333 28 56.5333 28 72.4C28 88.2667 31.7333 100.533 39.2 109.2C46.6667 117.867 57.5333 122.2 71.8 122.2C79 122.2 85.7333 121.067 92 118.8C98.2667 116.4 104.4 112.667 110.4 107.6L118.8 128C113.333 133.333 106.333 137.533 97.8 140.6C89.4 143.533 80.4667 145 71 145ZM123.013 143L186.813 1.99999H207.813L271.613 143H245.613L231.613 110.4H162.813L149.013 143H123.013ZM197.013 29.8L171.613 90H222.812L197.413 29.8H197.013ZM287.041 143V1.99999H348.241C363.707 1.99999 375.641 5.73332 384.041 13.2C392.441 20.5333 396.641 30.8667 396.641 44.2C396.641 54.7333 393.907 63.4667 388.441 70.4C382.974 77.2 375.107 81.8 364.841 84.2C371.641 86.3333 377.241 91.4667 381.641 99.6L405.241 143H377.041L352.641 98C350.241 93.6 347.374 90.6 344.041 89C340.841 87.4 336.707 86.6 331.641 86.6H312.641V143H287.041ZM312.641 67.6H343.841C362.507 67.6 371.841 60 371.841 44.8C371.841 29.7333 362.507 22.2 343.841 22.2H312.641V67.6ZM424.15 143V1.99999H517.95V22.4H448.75V61.2H513.55V81.6H448.75V122.6H517.95V143H424.15ZM543.486 143V1.99999H637.286V22.4H568.086V61.2H632.886V81.6H568.086V122.6H637.286V143H543.486ZM662.822 143V1.99999H724.022C739.489 1.99999 751.422 5.73332 759.822 13.2C768.222 20.5333 772.422 30.8667 772.422 44.2C772.422 54.7333 769.689 63.4667 764.222 70.4C758.755 77.2 750.889 81.8 740.622 84.2C747.422 86.3333 753.022 91.4667 757.422 99.6L781.022 143H752.822L728.422 98C726.022 93.6 723.155 90.6 719.822 89C716.622 87.4 712.489 86.6 707.422 86.6H688.422V143H662.822ZM688.422 67.6H719.622C738.289 67.6 747.622 60 747.622 44.8C747.622 29.7333 738.289 22.2 719.622 22.2H688.422V67.6ZM848.141 145C837.074 145 826.807 143.6 817.341 140.8C807.874 137.867 799.874 133.933 793.341 129L801.141 108.8C807.674 113.467 814.807 117.067 822.541 119.6C830.407 122.133 838.941 123.4 848.141 123.4C858.674 123.4 866.341 121.667 871.141 118.2C875.941 114.6 878.341 110 878.341 104.4C878.341 99.7333 876.607 96.0667 873.141 93.4C869.807 90.7333 864.007 88.5333 855.741 86.8L833.741 82.2C808.674 76.8667 796.141 64 796.141 43.6C796.141 34.8 798.474 27.1333 803.141 20.6C807.807 14.0667 814.274 9 822.541 5.4C830.807 1.79999 840.341 -6.67572e-06 851.141 -6.67572e-06C860.741 -6.67572e-06 869.741 1.46666 878.141 4.4C886.541 7.19999 893.541 11.2 899.141 16.4L891.341 35.6C880.274 26.2667 866.807 21.6 850.941 21.6C841.741 21.6 834.541 23.5333 829.341 27.4C824.141 31.2667 821.541 36.3333 821.541 42.6C821.541 47.4 823.141 51.2667 826.341 54.2C829.541 57 835.007 59.2 842.741 60.8L864.541 65.4C877.741 68.2 887.541 72.6 893.941 78.6C900.474 84.6 903.741 92.6 903.741 102.6C903.741 111 901.474 118.4 896.941 124.8C892.407 131.2 885.941 136.2 877.541 139.8C869.274 143.267 859.474 145 848.141 145Z" fill="#3BCEBF"/>
</svg>
