<svg width="356" height="145" viewBox="0 0 356 145" fill="none" xmlns="http://www.w3.org/2000/svg">
<path d="M71 145C56.3333 145 43.7333 142.067 33.2 136.2C22.8 130.2 14.8 121.8 9.2 111C3.6 100.067 0.8 87.2 0.8 72.4C0.8 57.6 3.6 44.8 9.2 34C14.8 23.2 22.8 14.8667 33.2 9C43.7333 2.99999 56.3333 -6.67572e-06 71 -6.67572e-06C80.4667 -6.67572e-06 89.4 1.46666 97.8 4.4C106.333 7.33333 113.333 11.5333 118.8 17L110.4 37.4C104.4 32.3333 98.2667 28.6667 92 26.4C85.7333 24 79 22.8 71.8 22.8C57.5333 22.8 46.6667 27.1333 39.2 35.8C31.7333 44.3333 28 56.5333 28 72.4C28 88.2667 31.7333 100.533 39.2 109.2C46.6667 117.867 57.5333 122.2 71.8 122.2C79 122.2 85.7333 121.067 92 118.8C98.2667 116.4 104.4 112.667 110.4 107.6L118.8 128C113.333 133.333 106.333 137.533 97.8 140.6C89.4 143.533 80.4667 145 71 145ZM173.189 143V23.4H124.789V1.99999H247.189V23.4H198.789V143H173.189ZM263.408 143V1.99999H355.608V22.4H289.008V62.2H351.408V82.6H289.008V143H263.408Z" fill="#3BCEBF"/>
</svg>
