<svg width="755" height="145" viewBox="0 0 755 145" fill="none" xmlns="http://www.w3.org/2000/svg">
<path d="M0.400001 143V1.99999H94.2V22.4H25V61.2H89.8V81.6H25V122.6H94.2V143H0.400001ZM164.35 143L101.55 1.99999H128.95L175.55 110.2L222.15 1.99999H248.55L185.75 143H164.35ZM261.728 143V1.99999H355.528V22.4H286.328V61.2H351.128V81.6H286.328V122.6H355.528V143H261.728ZM381.064 143V1.99999H400.264L476.064 100.4V1.99999H499.864V143H480.864L404.864 44.2V143H381.064ZM564.673 143V23.4H516.273V1.99999H638.673V23.4H590.273V143H564.673ZM698.805 145C687.738 145 677.471 143.6 668.005 140.8C658.538 137.867 650.538 133.933 644.005 129L651.805 108.8C658.338 113.467 665.471 117.067 673.205 119.6C681.071 122.133 689.605 123.4 698.805 123.4C709.338 123.4 717.005 121.667 721.805 118.2C726.605 114.6 729.005 110 729.005 104.4C729.005 99.7333 727.271 96.0667 723.805 93.4C720.471 90.7333 714.671 88.5333 706.405 86.8L684.405 82.2C659.338 76.8667 646.805 64 646.805 43.6C646.805 34.8 649.138 27.1333 653.805 20.6C658.471 14.0667 664.938 9 673.205 5.4C681.471 1.79999 691.005 -6.67572e-06 701.805 -6.67572e-06C711.405 -6.67572e-06 720.405 1.46666 728.805 4.4C737.205 7.19999 744.205 11.2 749.805 16.4L742.005 35.6C730.938 26.2667 717.471 21.6 701.605 21.6C692.405 21.6 685.205 23.5333 680.005 27.4C674.805 31.2667 672.205 36.3333 672.205 42.6C672.205 47.4 673.805 51.2667 677.005 54.2C680.205 57 685.671 59.2 693.405 60.8L715.205 65.4C728.405 68.2 738.205 72.6 744.605 78.6C751.138 84.6 754.405 92.6 754.405 102.6C754.405 111 752.138 118.4 747.605 124.8C743.071 131.2 736.605 136.2 728.205 139.8C719.938 143.267 710.138 145 698.805 145Z" fill="#3BCEBF"/>
</svg>
