<svg width="636" height="141" viewBox="0 0 636 141" fill="none" xmlns="http://www.w3.org/2000/svg">
<path d="M0.800001 141V-8.58307e-06H22.2L72.2 92.2L122 -8.58307e-06H143V141H119.8V46L79.4 119.6H64.4L24 46.4V141H0.800001ZM174.033 141V-8.58307e-06H267.833V20.4H198.633V59.2H263.433V79.6H198.633V120.6H267.833V141H174.033ZM293.369 141V-8.58307e-06H345.769C369.369 -8.58307e-06 387.569 6.06666 400.369 18.2C413.302 30.3333 419.769 47.7333 419.769 70.4C419.769 92.9333 413.302 110.333 400.369 122.6C387.569 134.867 369.369 141 345.769 141H293.369ZM318.969 119.8H344.169C376.702 119.8 392.969 103.333 392.969 70.4C392.969 37.6 376.702 21.2 344.169 21.2H318.969V119.8ZM445.713 141V-8.58307e-06H471.313V141H445.713ZM486.763 141L550.563 -8.58307e-06H571.563L635.363 141H609.363L595.363 108.4H526.563L512.763 141H486.763ZM560.763 27.8L535.363 88H586.562L561.163 27.8H560.763Z" fill="#3BCEBF"/>
</svg>
