<svg width="966" height="145" viewBox="0 0 966 145" fill="none" xmlns="http://www.w3.org/2000/svg">
<path d="M0.400001 143V1.99999H61.6C77.0667 1.99999 89 5.86666 97.4 13.6C105.8 21.3333 110 32.1333 110 46C110 59.8667 105.8 70.7333 97.4 78.6C89 86.3333 77.0667 90.2 61.6 90.2H26V143H0.400001ZM26 70H57.6C76 70 85.2 62 85.2 46C85.2 30.1333 76 22.2 57.6 22.2H26V70ZM130.869 143V1.99999H192.069C207.535 1.99999 219.469 5.73332 227.869 13.2C236.269 20.5333 240.469 30.8667 240.469 44.2C240.469 54.7333 237.735 63.4667 232.269 70.4C226.802 77.2 218.935 81.8 208.669 84.2C215.469 86.3333 221.069 91.4667 225.469 99.6L249.069 143H220.869L196.469 98C194.069 93.6 191.202 90.6 187.869 89C184.669 87.4 180.535 86.6 175.469 86.6H156.469V143H130.869ZM156.469 67.6H187.669C206.335 67.6 215.669 60 215.669 44.8C215.669 29.7333 206.335 22.2 187.669 22.2H156.469V67.6ZM330.202 145C316.602 145 304.668 142 294.402 136C284.268 130 276.402 121.6 270.802 110.8C265.202 99.8667 262.402 87.0667 262.402 72.4C262.402 57.6 265.202 44.8 270.802 34C276.402 23.2 284.268 14.8667 294.402 9C304.535 2.99999 316.468 -6.67572e-06 330.202 -6.67572e-06C343.935 -6.67572e-06 355.868 2.99999 366.002 9C376.135 14.8667 384.002 23.2 389.602 34C395.202 44.8 398.002 57.5333 398.002 72.2C398.002 87 395.202 99.8667 389.602 110.8C384.002 121.6 376.135 130 366.002 136C355.868 142 343.935 145 330.202 145ZM330.202 123C343.135 123 353.202 118.533 360.402 109.6C367.602 100.667 371.202 88.2667 371.202 72.4C371.202 56.4 367.602 44 360.402 35.2C353.335 26.4 343.268 22 330.202 22C317.268 22 307.202 26.4 300.002 35.2C292.802 44 289.202 56.4 289.202 72.4C289.202 88.2667 292.802 100.667 300.002 109.6C307.202 118.533 317.268 123 330.202 123ZM401.792 144.8L399.992 123.8L414.192 123C426.059 122.2 431.992 115.667 431.992 103.4V1.99999H457.592V103.2C457.592 128.533 444.459 142.133 418.192 144L401.792 144.8ZM488.486 143V1.99999H582.286V22.4H513.086V61.2H577.886V81.6H513.086V122.6H582.286V143H488.486ZM673.227 145C658.56 145 645.96 142.067 635.427 136.2C625.027 130.2 617.027 121.8 611.427 111C605.827 100.067 603.027 87.2 603.027 72.4C603.027 57.6 605.827 44.8 611.427 34C617.027 23.2 625.027 14.8667 635.427 9C645.96 2.99999 658.56 -6.67572e-06 673.227 -6.67572e-06C682.693 -6.67572e-06 691.627 1.46666 700.027 4.4C708.56 7.33333 715.56 11.5333 721.027 17L712.627 37.4C706.627 32.3333 700.493 28.6667 694.227 26.4C687.96 24 681.227 22.8 674.027 22.8C659.76 22.8 648.893 27.1333 641.427 35.8C633.96 44.3333 630.227 56.5333 630.227 72.4C630.227 88.2667 633.96 100.533 641.427 109.2C648.893 117.867 659.76 122.2 674.027 122.2C681.227 122.2 687.96 121.067 694.227 118.8C700.493 116.4 706.627 112.667 712.627 107.6L721.027 128C715.56 133.333 708.56 137.533 700.027 140.6C691.627 143.533 682.693 145 673.227 145ZM775.416 143V23.4H727.016V1.99999H849.416V23.4H801.016V143H775.416ZM909.547 145C898.48 145 888.214 143.6 878.747 140.8C869.28 137.867 861.28 133.933 854.747 129L862.547 108.8C869.08 113.467 876.214 117.067 883.947 119.6C891.814 122.133 900.347 123.4 909.547 123.4C920.08 123.4 927.747 121.667 932.547 118.2C937.347 114.6 939.747 110 939.747 104.4C939.747 99.7333 938.014 96.0667 934.547 93.4C931.214 90.7333 925.414 88.5333 917.147 86.8L895.147 82.2C870.08 76.8667 857.547 64 857.547 43.6C857.547 34.8 859.88 27.1333 864.547 20.6C869.214 14.0667 875.68 9 883.947 5.4C892.214 1.79999 901.747 -6.67572e-06 912.547 -6.67572e-06C922.147 -6.67572e-06 931.147 1.46666 939.547 4.4C947.947 7.19999 954.947 11.2 960.547 16.4L952.747 35.6C941.68 26.2667 928.214 21.6 912.347 21.6C903.147 21.6 895.947 23.5333 890.747 27.4C885.547 31.2667 882.947 36.3333 882.947 42.6C882.947 47.4 884.547 51.2667 887.747 54.2C890.947 57 896.414 59.2 904.147 60.8L925.947 65.4C939.147 68.2 948.947 72.6 955.347 78.6C961.88 84.6 965.147 92.6 965.147 102.6C965.147 111 962.88 118.4 958.347 124.8C953.814 131.2 947.347 136.2 938.947 139.8C930.68 143.267 920.88 145 909.547 145Z" fill="#3BCEBF"/>
</svg>
