<svg width="70" height="70" viewBox="0 0 70 70" fill="none" xmlns="http://www.w3.org/2000/svg">
<path d="M35 70C54.33 70 70 54.33 70 35C70 15.67 54.33 0 35 0C15.67 0 0 15.67 0 35C0 54.33 15.67 70 35 70Z" fill="#586AEA"/>
<path d="M48.8624 22.2832C46.2692 21.0928 43.5326 20.2442 40.7208 19.7581C40.6952 19.7531 40.6686 19.7564 40.645 19.7675C40.6212 19.7786 40.6018 19.7969 40.5892 19.8198C40.2392 20.4448 39.8492 21.2598 39.5758 21.9032C36.5448 21.4428 33.4618 21.4428 30.4308 21.9032C30.1266 21.1904 29.7834 20.4948 29.4024 19.8198C29.3894 19.7974 29.3698 19.7795 29.3462 19.7685C29.3228 19.7575 29.2964 19.7539 29.2708 19.7581C26.459 20.2432 23.722 21.0918 21.1292 22.2832C21.1072 22.2924 21.0886 22.308 21.0758 22.3282C15.8891 30.0764 14.4675 37.6332 15.1658 45.0948C15.1675 45.1134 15.173 45.1312 15.1818 45.1476C15.1907 45.164 15.2028 45.1784 15.2175 45.1898C18.2368 47.4268 21.6144 49.1344 25.2058 50.2398C25.2312 50.2472 25.258 50.2466 25.283 50.2382C25.308 50.23 25.33 50.2142 25.3458 50.1932C26.1158 49.1432 26.8024 48.0348 27.3892 46.8698C27.3974 46.8538 27.402 46.8364 27.403 46.8186C27.404 46.8006 27.4012 46.7828 27.3946 46.7662C27.3882 46.7494 27.3784 46.7342 27.3656 46.7218C27.3528 46.7092 27.3376 46.6994 27.3208 46.6932C26.2432 46.2808 25.2 45.7836 24.2008 45.2064C24.1826 45.1958 24.167 45.181 24.156 45.163C24.1448 45.145 24.1382 45.1244 24.137 45.1034C24.1356 45.0822 24.1396 45.0612 24.1484 45.042C24.1572 45.0226 24.1706 45.006 24.1874 44.9932C24.3978 44.8358 24.6046 44.6734 24.8074 44.5064C24.8252 44.492 24.8466 44.4828 24.8692 44.48C24.892 44.477 24.915 44.4804 24.9358 44.4898C31.4824 47.4782 38.5692 47.4782 45.0392 44.4898C45.0602 44.48 45.0836 44.4764 45.1066 44.4794C45.1296 44.4824 45.1512 44.4918 45.1692 44.5064C45.3692 44.6698 45.5792 44.8364 45.7908 44.9932C45.8074 45.0058 45.8208 45.0222 45.8296 45.041C45.8386 45.06 45.8426 45.0808 45.8416 45.1016C45.8406 45.1224 45.8346 45.1428 45.824 45.1608C45.8134 45.1788 45.7986 45.1938 45.7808 45.2048C44.784 45.7874 43.7398 46.2848 42.6592 46.6914C42.6424 46.698 42.627 46.7078 42.6144 46.7206C42.6016 46.7332 42.5916 46.7486 42.5852 46.7654C42.5788 46.7822 42.576 46.8002 42.577 46.8182C42.5778 46.8362 42.5826 46.8538 42.5908 46.8698C43.1908 48.0332 43.8774 49.1398 44.6324 50.1914C44.648 50.2128 44.6698 50.229 44.695 50.2372C44.7202 50.2456 44.7472 50.246 44.7724 50.2382C48.37 49.1362 51.753 47.4284 54.7758 45.1882C54.7906 45.1778 54.8028 45.1644 54.812 45.1488C54.8212 45.1334 54.827 45.116 54.8292 45.0982C55.6624 36.4698 53.4324 28.9748 48.9142 22.3314C48.9036 22.309 48.8852 22.2912 48.8624 22.2814V22.2832ZM28.3674 40.5498C26.3958 40.5498 24.7724 38.7414 24.7724 36.5182C24.7724 34.2964 26.3658 32.4864 28.3674 32.4864C30.3842 32.4864 31.9942 34.3132 31.9624 36.5198C31.9624 38.7414 30.3692 40.5498 28.3674 40.5498ZM41.6592 40.5498C39.6874 40.5498 38.0642 38.7414 38.0642 36.5182C38.0642 34.2964 39.6558 32.4864 41.6592 32.4864C43.6758 32.4864 45.2858 34.3132 45.2542 36.5198C45.2542 38.7414 43.6774 40.5498 41.6592 40.5498Z" fill="white"/>
</svg>
