<svg width="70" height="70" viewBox="0 0 70 70" fill="none" xmlns="http://www.w3.org/2000/svg">
<path d="M35 70C54.33 70 70 54.33 70 35C70 15.67 54.33 0 35 0C15.67 0 0 15.67 0 35C0 54.33 15.67 70 35 70Z" fill="#FF0000"/>
<path d="M54.1608 25.3393C53.9284 24.5089 53.4858 23.7527 52.8754 23.1435C52.265 22.5345 51.5078 22.0935 50.677 21.8629C47.5582 21.0293 35.0208 21.0293 35.0208 21.0293C35.0208 21.0293 22.507 21.0093 19.3557 21.8629C18.5262 22.0945 17.7705 22.5361 17.1615 23.1451C16.5525 23.7539 16.1109 24.5097 15.8794 25.3393C15.2872 28.5321 14.9955 31.7733 15.0082 35.0205C15.0024 38.2521 15.2941 41.4773 15.8794 44.6555C16.1117 45.4855 16.5534 46.2417 17.1622 46.8519C17.7709 47.4619 18.5262 47.9051 19.3557 48.1393C22.4744 48.9729 35.0208 48.9729 35.0208 48.9729C35.0208 48.9729 47.527 48.9729 50.677 48.1393C51.5078 47.9063 52.2646 47.4633 52.8748 46.8533C53.4848 46.2431 53.9278 45.4863 54.1608 44.6555C54.7344 41.4793 55.0144 38.2493 54.9944 35.0205C55.0144 31.7705 54.7408 28.5355 54.1608 25.3393ZM31.0158 41.0043V29.0105L41.452 35.0205L31.0158 41.0043Z" fill="white"/>
</svg>
