<svg width="541" height="259" viewBox="0 0 541 259" fill="none" xmlns="http://www.w3.org/2000/svg">
<path d="M541 259.001L0 259.001L1.43051e-05 0.500061C1.43051e-05 17.5001 61.7266 142 101.421 167C146 195.076 218.36 172 273.43 172C328.499 172 352.842 190.613 366.54 202C445.929 268 474.353 229.501 541 259.001Z" fill="#3BCEBF"/>
<!-- <path d="M510 259C510 259 408.013 259 0 259C0 174.142 0.0097069 75.2643 0.00805595 46.0208C0.00312109 46.007 0.000644684 46.0001 0.000644684 46.0001C0.00532558 33.9421 0.00745164 35.3165 0.00805595 46.0208C0.670157 47.8623 45.587 172.292 91.3729 163.927C137.5 155.5 164.863 213.016 243.198 195.952C335.08 175.936 341.208 213.714 380.775 219.47C477.078 233.481 486.534 251.35 510 259Z" fill="#1a1a1a"/> -->
</svg>
