<svg width="97" height="130" viewBox="0 0 97 130" fill="none" xmlns="http://www.w3.org/2000/svg">
<path d="M1.6 130V113.2C10.6667 105.6 18.9333 98.5333 26.4 92C33.8667 85.3333 40.2667 79.1333 45.6 73.4C50.9333 67.6667 55.0667 62.2667 58 57.2C60.9333 52.1333 62.4 47.3333 62.4 42.8C62.4 36.5333 60.6 31.8 57 28.6C53.4 25.2667 48.2667 23.6 41.6 23.6C36.5333 23.6 31.8667 24.9333 27.6 27.6C23.4667 30.1333 19.6 33.1333 16 36.6L0.200001 20.8C3.53333 17.4667 6.8 14.5333 10 12C13.3333 9.46666 16.8 7.39999 20.4 5.79999C24.1333 4.06666 28 2.8 32 1.99999C36.1333 1.06666 40.6667 0.599997 45.6 0.599997C52.2667 0.599997 58.3333 1.6 63.8 3.59999C69.2667 5.46666 73.9333 8.19999 77.8 11.8C81.8 15.2667 84.8667 19.4667 87 24.4C89.2667 29.3333 90.4 34.8667 90.4 41C90.4 46.3333 89.1333 51.8 86.6 57.4C84.0667 62.8667 80.6 68.4 76.2 74C71.9333 79.4667 67 85 61.4 90.6C55.8 96.0667 49.9333 101.467 43.8 106.8C47.4 106.4 51.2667 106.067 55.4 105.8C59.6667 105.4 63.4667 105.2 66.8 105.2H97V130H1.6Z" fill="#3BCEBF"/>
</svg>
