<svg width="99" height="133" viewBox="0 0 99 133" fill="none" xmlns="http://www.w3.org/2000/svg">
<path d="M47.8 132.4C36.8667 132.4 27.4667 130.8 19.6 127.6C11.7333 124.267 5.33333 119.867 0.400001 114.4L14 95.8C18.2667 99.5333 23 102.6 28.2 105C33.5333 107.4 39.1333 108.6 45 108.6C51.9333 108.6 57.6 107.333 62 104.8C66.5333 102.133 68.8 98.4 68.8 93.6C68.8 90.8 68.2 88.2667 67 86C65.8 83.7333 63.7333 81.8667 60.8 80.4C57.8667 78.8 53.9333 77.6 49 76.8C44.0667 75.8667 37.8667 75.4 30.4 75.4V54.6C42.9333 54.6 51.7333 53.0667 56.8 50C62 46.8 64.6 42.6667 64.6 37.6C64.6 33.2 62.9333 29.8 59.6 27.4C56.2667 24.8667 51.6667 23.6 45.8 23.6C40.7333 23.6 36.0667 24.6 31.8 26.6C27.5333 28.6 23.2 31.3333 18.8 34.8L4 16.8C10.2667 11.7333 16.9333 7.8 24 5C31.2 2.06666 38.9333 0.599997 47.2 0.599997C54.1333 0.599997 60.4667 1.39999 66.2 2.99999C71.9333 4.46666 76.8667 6.73333 81 9.8C85.1333 12.7333 88.3333 16.3333 90.6 20.6C92.8667 24.8667 94 29.8 94 35.4C94 42.0667 91.8667 47.7333 87.6 52.4C83.3333 56.9333 77.4 60.6667 69.8 63.6V64.4C77.8 66.5333 84.5333 70.2 90 75.4C95.4667 80.4667 98.2 87.1333 98.2 95.4C98.2 101.267 96.8 106.533 94 111.2C91.3333 115.733 87.6667 119.6 83 122.8C78.4667 125.867 73.1333 128.267 67 130C60.8667 131.6 54.4667 132.4 47.8 132.4Z" fill="#3BCEBF"/>
</svg>
